<?xml version="1.0" encoding="UTF-8" standalone="no"?>
<!DOCTYPE svg PUBLIC "-//W3C//DTD SVG 1.1//EN" "http://www.w3.org/Graphics/SVG/1.1/DTD/svg11.dtd">
<svg version="1.1" xmlns="http://www.w3.org/2000/svg" xmlns:xlink="http://www.w3.org/1999/xlink" preserveAspectRatio="xMidYMid meet" viewBox="0 0 640 640" width="640" height="640"><defs><path d="M368.49 48.49C368.49 75.25 346.76 96.97 320 96.97C293.24 96.97 271.51 75.25 271.51 48.49C271.51 21.73 293.24 0 320 0C346.76 0 368.49 21.73 368.49 48.49Z" id="c18NsJ1qig"></path><path d="M135.46 177.78C135.46 190.01 125.54 199.93 113.32 199.93C101.09 199.93 91.17 190.01 91.17 177.78C91.17 165.56 101.09 155.63 113.32 155.63C125.54 155.63 135.46 165.56 135.46 177.78Z" id="b3c0TENI4"></path><path d="M192.58 177.78C192.58 190.01 182.65 199.93 170.43 199.93C158.21 199.93 148.28 190.01 148.28 177.78C148.28 165.56 158.21 155.63 170.43 155.63C182.65 155.63 192.58 165.56 192.58 177.78Z" id="d2eoCdkH4K"></path><path d="M253.83 177.78C253.83 190.01 243.91 199.93 231.68 199.93C219.46 199.93 209.54 190.01 209.54 177.78C209.54 165.56 219.46 155.63 231.68 155.63C243.91 155.63 253.83 165.56 253.83 177.78Z" id="bspCSec3v"></path><path d="M310.94 177.78C310.94 190.01 301.02 199.93 288.8 199.93C276.57 199.93 266.65 190.01 266.65 177.78C266.65 165.56 276.57 155.63 288.8 155.63C301.02 155.63 310.94 165.56 310.94 177.78Z" id="aFGM57U97"></path><path d="M373.35 177.78C373.35 190.01 363.43 199.93 351.2 199.93C338.98 199.93 329.06 190.01 329.06 177.78C329.06 165.56 338.98 155.63 351.2 155.63C363.43 155.63 373.35 165.56 373.35 177.78Z" id="a2kpaLdWeN"></path><path d="M430.46 177.78C430.46 190.01 420.54 199.93 408.32 199.93C396.09 199.93 386.17 190.01 386.17 177.78C386.17 165.56 396.09 155.63 408.32 155.63C420.54 155.63 430.46 165.56 430.46 177.78Z" id="b4bgl26dkh"></path><path d="M491.72 177.78C491.72 190.01 481.79 199.93 469.57 199.93C457.35 199.93 447.42 190.01 447.42 177.78C447.42 165.56 457.35 155.63 469.57 155.63C481.79 155.63 491.72 165.56 491.72 177.78Z" id="a33OMHtcx"></path><path d="M548.83 177.78C548.83 190.01 538.91 199.93 526.68 199.93C514.46 199.93 504.54 190.01 504.54 177.78C504.54 165.56 514.46 155.63 526.68 155.63C538.91 155.63 548.83 165.56 548.83 177.78Z" id="a1QkTNhccj"></path><path d="M320 96.97L175.14 155.63" id="eoNVV8wHU"></path><path d="M316.41 96.97L113.32 155.63" id="a2PDgmXzrh"></path><path d="M316.41 96.97L231.68 155.63" id="a3ggDxelnq"></path><path d="M320 96.97L288.8 155.63" id="cm9L7swHq"></path><path d="M316.41 96.97L351.2 155.63" id="a6AYIAfa87"></path><path d="M320 96.97L408.32 155.63" id="a77JPC8FfL"></path><path d="M316.41 96.97L469.57 155.63" id="c1Q9mL4f3w"></path><path d="M320 96.97L526.68 155.63" id="c1YwLqDoKG"></path></defs><g><g><g><use xlink:href="#c18NsJ1qig" opacity="1" fill="#2757d8" fill-opacity="1"></use></g><g><use xlink:href="#b3c0TENI4" opacity="1" fill="#7eaeea" fill-opacity="1"></use></g><g><use xlink:href="#d2eoCdkH4K" opacity="1" fill="#7eaeea" fill-opacity="1"></use></g><g><use xlink:href="#bspCSec3v" opacity="1" fill="#7eaeea" fill-opacity="1"></use></g><g><use xlink:href="#aFGM57U97" opacity="1" fill="#7eaeea" fill-opacity="1"></use></g><g><use xlink:href="#a2kpaLdWeN" opacity="1" fill="#7eaeea" fill-opacity="1"></use></g><g><use xlink:href="#b4bgl26dkh" opacity="1" fill="#7eaeea" fill-opacity="1"></use></g><g><use xlink:href="#a33OMHtcx" opacity="1" fill="#7eaeea" fill-opacity="1"></use></g><g><use xlink:href="#a1QkTNhccj" opacity="1" fill="#7eaeea" fill-opacity="1"></use></g><g><g><use xlink:href="#eoNVV8wHU" opacity="1" fill-opacity="0" stroke="#000000" stroke-width="1" stroke-opacity="1"></use></g></g><g><g><use xlink:href="#a2PDgmXzrh" opacity="1" fill-opacity="0" stroke="#000000" stroke-width="1" stroke-opacity="1"></use></g></g><g><g><use xlink:href="#a3ggDxelnq" opacity="1" fill-opacity="0" stroke="#000000" stroke-width="1" stroke-opacity="1"></use></g></g><g><g><use xlink:href="#cm9L7swHq" opacity="1" fill-opacity="0" stroke="#000000" stroke-width="1" stroke-opacity="1"></use></g></g><g><g><use xlink:href="#a6AYIAfa87" opacity="1" fill-opacity="0" stroke="#000000" stroke-width="1" stroke-opacity="1"></use></g></g><g><g><use xlink:href="#a77JPC8FfL" opacity="1" fill-opacity="0" stroke="#000000" stroke-width="1" stroke-opacity="1"></use></g></g><g><g><use xlink:href="#c1Q9mL4f3w" opacity="1" fill-opacity="0" stroke="#000000" stroke-width="1" stroke-opacity="1"></use></g></g><g><g><use xlink:href="#c1YwLqDoKG" opacity="1" fill-opacity="0" stroke="#000000" stroke-width="1" stroke-opacity="1"></use></g></g></g></g></svg>