<?xml version="1.0" encoding="UTF-8" standalone="no"?>
<!DOCTYPE svg PUBLIC "-//W3C//DTD SVG 1.1//EN" "http://www.w3.org/Graphics/SVG/1.1/DTD/svg11.dtd">
<svg version="1.1" xmlns="http://www.w3.org/2000/svg" xmlns:xlink="http://www.w3.org/1999/xlink" preserveAspectRatio="xMidYMid meet" viewBox="0 0 640 640" width="640" height="640"><defs><path d="M371.19 65.24L50.95 65.24" id="nBO0CIWP5"></path><path d="M71.19 83.9L71.19 48.19" id="acFOTMNSm"></path><path d="M91.19 48.19L91.19 83.9" id="g33T3hNZgz"></path><path d="M111.19 48.19L111.19 83.9" id="augUQw1OY"></path><path d="M131.19 83.9L131.19 48.19" id="ia56b6fZL"></path><path d="M151.19 48.19L151.19 83.9" id="cBbPh1BCu"></path><path d="M171.19 48.19L171.19 83.9" id="ap1NHTdls"></path><path d="M191.19 83.9L191.19 48.19" id="b2kqyR39r4"></path><path d="M211.19 48.19L211.19 83.9" id="iszGIHmY"></path><path d="M231.19 48.19L231.19 83.9" id="a3m8NcwdXh"></path><path d="M251.19 83.9L251.19 48.19" id="c1V0pUab45"></path><path d="M271.19 48.19L271.19 83.9" id="d3DVwnoHQh"></path><path d="M291.19 48.19L291.19 83.9" id="alnydmd1j"></path><path d="M311.19 83.9L311.19 48.19" id="a3bf3VFMID"></path><path d="M331.19 48.19L331.19 83.9" id="c1SjnWbnOD"></path><path d="M351.19 48.19L351.19 83.9" id="ajfvjURkH"></path><path d="M77.13 69.57L71.19 78.5L77.13 87.43L77.13 81.62L85.25 81.62L85.25 87.43L91.19 78.5L85.25 69.57L85.25 75.37L77.13 75.37L77.13 69.57Z" id="bCG5vrPZT"></path><path d="M97.13 69.57L91.19 78.5L97.13 87.43L97.13 81.62L105.25 81.62L105.25 87.43L111.19 78.5L105.25 69.57L105.25 75.37L97.13 75.37L97.13 69.57Z" id="aqKlRxYjt"></path><path d="M117.13 69.57L111.19 78.5L117.13 87.43L117.13 81.62L125.25 81.62L125.25 87.43L131.19 78.5L125.25 69.57L125.25 75.37L117.13 75.37L117.13 69.57Z" id="a1m7MXFjTR"></path><path d="M137.13 69.57L131.19 78.5L137.13 87.43L137.13 81.62L145.25 81.62L145.25 87.43L151.19 78.5L145.25 69.57L145.25 75.37L137.13 75.37L137.13 69.57Z" id="b2Kbgg0kwP"></path><path d="M157.13 69.57L151.19 78.5L157.13 87.43L157.13 81.62L165.25 81.62L165.25 87.43L171.19 78.5L165.25 69.57L165.25 75.37L157.13 75.37L157.13 69.57Z" id="b5k1GImMz"></path><path d="M177.13 69.57L171.19 78.5L177.13 87.43L177.13 81.62L185.25 81.62L185.25 87.43L191.19 78.5L185.25 69.57L185.25 75.37L177.13 75.37L177.13 69.57Z" id="b8203X77l"></path><path d="M197.13 69.57L191.19 78.5L197.13 87.43L197.13 81.62L205.25 81.62L205.25 87.43L211.19 78.5L205.25 69.57L205.25 75.37L197.13 75.37L197.13 69.57Z" id="cKif8aJCu"></path><path d="M217.13 69.57L211.19 78.5L217.13 87.43L217.13 81.62L225.25 81.62L225.25 87.43L231.19 78.5L225.25 69.57L225.25 75.37L217.13 75.37L217.13 69.57Z" id="b1y7i1b7c1"></path><path d="M237.13 69.57L231.19 78.5L237.13 87.43L237.13 81.62L245.25 81.62L245.25 87.43L251.19 78.5L245.25 69.57L245.25 75.37L237.13 75.37L237.13 69.57Z" id="aOl7LEOQA"></path><path d="M257.13 69.57L251.19 78.5L257.13 87.43L257.13 81.62L265.25 81.62L265.25 87.43L271.19 78.5L265.25 69.57L265.25 75.37L257.13 75.37L257.13 69.57Z" id="bix6CEfxf"></path><path d="M277.13 69.57L271.19 78.5L277.13 87.43L277.13 81.62L285.25 81.62L285.25 87.43L291.19 78.5L285.25 69.57L285.25 75.37L277.13 75.37L277.13 69.57Z" id="d1TtTQO4ks"></path><path d="M297.13 69.57L291.19 78.5L297.13 87.43L297.13 81.62L305.25 81.62L305.25 87.43L311.19 78.5L305.25 69.57L305.25 75.37L297.13 75.37L297.13 69.57Z" id="b2w3u2nqKM"></path><path d="M317.13 69.57L311.19 78.5L317.13 87.43L317.13 81.62L325.25 81.62L325.25 87.43L331.19 78.5L325.25 69.57L325.25 75.37L317.13 75.37L317.13 69.57Z" id="a3tHW4MCJv"></path><path d="M337.13 69.57L331.19 78.5L337.13 87.43L337.13 81.62L345.25 81.62L345.25 87.43L351.19 78.5L345.25 69.57L345.25 75.37L337.13 75.37L337.13 69.57Z" id="g14f6swh0S"></path></defs><g><g><g><g><use xlink:href="#nBO0CIWP5" opacity="1" fill-opacity="0" stroke="#000000" stroke-width="1" stroke-opacity="1"></use></g></g><g><g><use xlink:href="#acFOTMNSm" opacity="1" fill-opacity="0" stroke="#000000" stroke-width="1" stroke-opacity="1"></use></g></g><g><g><use xlink:href="#g33T3hNZgz" opacity="1" fill-opacity="0" stroke="#000000" stroke-width="1" stroke-opacity="1"></use></g></g><g><g><use xlink:href="#augUQw1OY" opacity="1" fill-opacity="0" stroke="#000000" stroke-width="1" stroke-opacity="1"></use></g></g><g><g><use xlink:href="#ia56b6fZL" opacity="1" fill-opacity="0" stroke="#000000" stroke-width="1" stroke-opacity="1"></use></g></g><g><g><use xlink:href="#cBbPh1BCu" opacity="1" fill-opacity="0" stroke="#000000" stroke-width="1" stroke-opacity="1"></use></g></g><g><g><use xlink:href="#ap1NHTdls" opacity="1" fill-opacity="0" stroke="#000000" stroke-width="1" stroke-opacity="1"></use></g></g><g><g><use xlink:href="#b2kqyR39r4" opacity="1" fill-opacity="0" stroke="#000000" stroke-width="1" stroke-opacity="1"></use></g></g><g><g><use xlink:href="#iszGIHmY" opacity="1" fill-opacity="0" stroke="#000000" stroke-width="1" stroke-opacity="1"></use></g></g><g><g><use xlink:href="#a3m8NcwdXh" opacity="1" fill-opacity="0" stroke="#000000" stroke-width="1" stroke-opacity="1"></use></g></g><g><g><use xlink:href="#c1V0pUab45" opacity="1" fill-opacity="0" stroke="#000000" stroke-width="1" stroke-opacity="1"></use></g></g><g><g><use xlink:href="#d3DVwnoHQh" opacity="1" fill-opacity="0" stroke="#000000" stroke-width="1" stroke-opacity="1"></use></g></g><g><g><use xlink:href="#alnydmd1j" opacity="1" fill-opacity="0" stroke="#000000" stroke-width="1" stroke-opacity="1"></use></g></g><g><g><use xlink:href="#a3bf3VFMID" opacity="1" fill-opacity="0" stroke="#000000" stroke-width="1" stroke-opacity="1"></use></g></g><g><g><use xlink:href="#c1SjnWbnOD" opacity="1" fill-opacity="0" stroke="#000000" stroke-width="1" stroke-opacity="1"></use></g></g><g><g><use xlink:href="#ajfvjURkH" opacity="1" fill-opacity="0" stroke="#000000" stroke-width="1" stroke-opacity="1"></use></g></g><g><use xlink:href="#bCG5vrPZT" opacity="1" fill="#000000" fill-opacity="1"></use></g><g><use xlink:href="#aqKlRxYjt" opacity="1" fill="#000000" fill-opacity="1"></use></g><g><use xlink:href="#a1m7MXFjTR" opacity="1" fill="#000000" fill-opacity="1"></use></g><g><use xlink:href="#b2Kbgg0kwP" opacity="1" fill="#000000" fill-opacity="1"></use></g><g><use xlink:href="#b5k1GImMz" opacity="1" fill="#000000" fill-opacity="1"></use></g><g><use xlink:href="#b8203X77l" opacity="1" fill="#000000" fill-opacity="1"></use></g><g><use xlink:href="#cKif8aJCu" opacity="1" fill="#000000" fill-opacity="1"></use></g><g><use xlink:href="#b1y7i1b7c1" opacity="1" fill="#000000" fill-opacity="1"></use></g><g><use xlink:href="#aOl7LEOQA" opacity="1" fill="#000000" fill-opacity="1"></use></g><g><use xlink:href="#bix6CEfxf" opacity="1" fill="#000000" fill-opacity="1"></use></g><g><use xlink:href="#d1TtTQO4ks" opacity="1" fill="#000000" fill-opacity="1"></use></g><g><use xlink:href="#b2w3u2nqKM" opacity="1" fill="#000000" fill-opacity="1"></use></g><g><use xlink:href="#a3tHW4MCJv" opacity="1" fill="#000000" fill-opacity="1"></use></g><g><use xlink:href="#g14f6swh0S" opacity="1" fill="#000000" fill-opacity="1"></use></g></g></g></svg>